<svg
  width="13"
  height="13"
  viewBox="0 0 13 13"
  fill="none"
  xmlns="http://www.w3.org/2000/svg"
>
  <path
    d="M6.52861 11.046C5.89176 10.5028 5.30146 9.90728 4.76388 9.26566C3.95714 8.30212 2.99915 6.86714 2.99915 5.49973C2.99843 4.07158 3.85844 2.78375 5.17787 2.2372C6.49729 1.69064 8.01606 1.99308 9.02545 3.00339C9.68922 3.66421 10.0611 4.56311 10.0581 5.49973C10.0581 6.86714 9.10007 8.30212 8.29334 9.26566C7.75576 9.90728 7.16546 10.5028 6.52861 11.046ZM6.52861 3.9871C5.9882 3.9871 5.48884 4.27541 5.21864 4.74342C4.94843 5.21142 4.94843 5.78803 5.21864 6.25604C5.48884 6.72405 5.9882 7.01236 6.52861 7.01236C7.36401 7.01236 8.04123 6.33513 8.04123 5.49973C8.04123 4.66433 7.36401 3.9871 6.52861 3.9871Z"
    fill="#79819A"
  />
</svg>